<svg xmlns="http://www.w3.org/2000/svg" width="293.926" height="37.352" viewBox="0 0 293.926 37.352"><defs><style>.a{fill:#434343;}.b{fill:#d72f5a;}.c{fill:#00ada8;}.d{fill:#e88733;}</style></defs><g transform="translate(-692.923 -720.797)"><path class="a" d="M1519.78,735.287c-.186-.014-.361-.028-5.3-.036h-.007a4.308,4.308,0,0,0-.561.041c-2.354,0-4.794-.01-5.359-.018a2.9,2.9,0,1,1,.021-5.8c1.152-.008,9.684-.015,15.366-.017a4.284,4.284,0,0,0,0-8.568s-15.67.016-15.861.029a11.466,11.466,0,0,0-.086,22.909c.194.015.362.028,6.571.036h.006a4.31,4.31,0,0,0,.559-.04c1.8,0,3.617.01,4.083.017a2.9,2.9,0,1,1-.015,5.8c-1.214.008,1.8.014-4.433.017a4.284,4.284,0,0,0,0,8.568h0l6.494-.03c5.826,0,9.415-5.459,9.415-11.457A11.685,11.685,0,0,0,1519.78,735.287Z" transform="translate(-673.882 -0.075)"/><g transform="translate(949.885 720.797)"><path class="a" d="M2290.646,828.067a4.284,4.284,0,0,0-5.733,1.96l-5.546,11.453a4.284,4.284,0,1,0,7.693,3.773l5.546-11.453A4.283,4.283,0,0,0,2290.646,828.067Z" transform="translate(-2278.929 -810.319)"/><path class="a" d="M2389.358,751.958,2375.252,723.2a4.284,4.284,0,1,0-7.692,3.773l14.105,28.761a4.284,4.284,0,1,0,7.692-3.773Z" transform="translate(-2352.833 -720.797)"/></g><g transform="translate(692.923 720.797)"><path class="b" d="M704.64,828.067a4.283,4.283,0,0,0-5.733,1.96l-5.546,11.453a4.284,4.284,0,1,0,7.693,3.773L706.6,833.8A4.284,4.284,0,0,0,704.64,828.067Z" transform="translate(-692.923 -810.319)"/><path class="c" d="M789.249,723.2a4.284,4.284,0,1,0-7.693,3.773l14.1,28.761a4.284,4.284,0,0,0,7.693-3.773Z" transform="translate(-766.828 -720.797)"/><path class="d" d="M923.038,751.958,908.932,723.2a4.284,4.284,0,1,0-7.692,3.773l14.105,28.761a4.284,4.284,0,0,0,7.693-3.773Z" transform="translate(-867.121 -720.797)"/></g><g transform="translate(878.091 720.798)"><path class="d" d="M2108.229,721.237a4.281,4.281,0,0,0-5.733,1.96l-5.546,11.453a4.284,4.284,0,0,0,7.693,3.773l5.546-11.453A4.284,4.284,0,0,0,2108.229,721.237Z" transform="translate(-2054.272 -720.798)"/><path class="c" d="M1963.62,723.2a4.284,4.284,0,0,0-7.693,3.773l14.105,28.761a4.284,4.284,0,0,0,7.693-3.773Z" transform="translate(-1936.097 -720.798)"/><path class="b" d="M1843.936,723.2a4.284,4.284,0,1,0-7.693,3.773l14.1,28.761a4.284,4.284,0,0,0,7.693-3.773Z" transform="translate(-1835.805 -720.798)"/></g><path class="a" d="M1153.45,720.8a18.665,18.665,0,1,0,18.665,18.665A18.686,18.686,0,0,0,1153.45,720.8Zm0,28.762a10.1,10.1,0,1,1,10.1-10.1A10.108,10.108,0,0,1,1153.45,749.566Z" transform="translate(-370.273 -0.005)"/></g></svg>