<svg xmlns="http://www.w3.org/2000/svg" width="133.926" height="17.019" viewBox="0 0 133.926 17.019"><defs><style>.a{fill:#434343;}.b{fill:#d72f5a;}.c{fill:#00ada8;}.d{fill:#e88733;}</style></defs><g transform="translate(-692.923 -720.797)"><path class="a" d="M1507.432,727.448c-.085-.007-.165-.013-2.413-.016h0a1.962,1.962,0,0,0-.255.019c-1.073,0-2.185,0-2.442-.008a1.322,1.322,0,1,1,.01-2.644c.525,0,4.413-.007,7-.008a1.952,1.952,0,0,0,0-3.9s-7.14.007-7.227.013a5.225,5.225,0,0,0-.039,10.438c.089.007.165.013,2.994.016h0a1.969,1.969,0,0,0,.255-.018c.821,0,1.648,0,1.86.008a1.322,1.322,0,1,1-.007,2.644c-.553,0,.822.007-2.02.008a1.952,1.952,0,0,0,0,3.9h0l2.959-.013c2.655,0,4.29-2.487,4.29-5.22A5.324,5.324,0,0,0,1507.432,727.448Z" transform="translate(-744.807 -0.083)"/><g transform="translate(810.007 720.797)"><path class="a" d="M2284.268,827.828a1.952,1.952,0,0,0-2.612.893l-2.527,5.219a1.952,1.952,0,1,0,3.5,1.719l2.527-5.219A1.952,1.952,0,0,0,2284.268,827.828Z" transform="translate(-2278.929 -819.741)"/><path class="a" d="M2377.253,735l-6.427-13.1a1.952,1.952,0,1,0-3.5,1.719l6.427,13.105a1.952,1.952,0,0,0,3.505-1.719Z" transform="translate(-2360.611 -720.797)"/></g><g transform="translate(692.923 720.797)"><path class="b" d="M698.262,827.828a1.952,1.952,0,0,0-2.612.893l-2.527,5.219a1.952,1.952,0,1,0,3.505,1.719l2.527-5.219A1.952,1.952,0,0,0,698.262,827.828Z" transform="translate(-692.923 -819.741)"/><path class="c" d="M784.823,721.891a1.952,1.952,0,1,0-3.505,1.719l6.427,13.105A1.952,1.952,0,0,0,791.25,735Z" transform="translate(-774.607 -720.797)"/><path class="d" d="M910.933,735l-6.427-13.1A1.952,1.952,0,1,0,901,723.609l6.427,13.105A1.952,1.952,0,0,0,910.933,735Z" transform="translate(-885.455 -720.797)"/></g><g transform="translate(777.294 720.797)"><path class="d" d="M2101.85,721a1.951,1.951,0,0,0-2.612.893l-2.527,5.218a1.952,1.952,0,0,0,3.505,1.719l2.527-5.219A1.952,1.952,0,0,0,2101.85,721Z" transform="translate(-2077.265 -720.798)"/><path class="c" d="M1959.193,721.891a1.952,1.952,0,1,0-3.505,1.719l6.427,13.1A1.952,1.952,0,0,0,1965.62,735Z" transform="translate(-1946.653 -720.798)"/><path class="b" d="M1839.51,721.891A1.952,1.952,0,1,0,1836,723.61l6.427,13.1a1.952,1.952,0,0,0,3.505-1.719Z" transform="translate(-1835.805 -720.798)"/></g><path class="a" d="M1143.29,720.8a8.5,8.5,0,1,0,8.5,8.5A8.514,8.514,0,0,0,1143.29,720.8Zm0,13.105a4.6,4.6,0,1,1,4.6-4.6A4.606,4.606,0,0,1,1143.29,733.909Z" transform="translate(-409.243 -0.006)"/></g></svg>