<svg xmlns="http://www.w3.org/2000/svg" width="140.5" height="17.855" viewBox="0 0 140.5 17.855"><defs><style>.a{fill:#fff;}</style></defs><g transform="translate(-692.923 -720.797)"><path class="a" d="M1507.939,727.77c-.089-.007-.173-.013-2.531-.017h0a2.056,2.056,0,0,0-.268.02c-1.125,0-2.292-.005-2.562-.008a1.387,1.387,0,1,1,.01-2.773c.551,0,4.629-.007,7.345-.008a2.048,2.048,0,0,0,0-4.1s-7.49.008-7.582.014a5.481,5.481,0,0,0-.041,10.951c.093.007.173.013,3.141.017h0a2.064,2.064,0,0,0,.267-.019c.861,0,1.729,0,1.952.008a1.387,1.387,0,1,1-.007,2.774c-.58,0,.863.007-2.119.008a2.048,2.048,0,0,0,0,4.1h0l3.1-.014c2.785,0,4.5-2.61,4.5-5.477A5.585,5.585,0,0,0,1507.939,727.77Z" transform="translate(-741.893 -0.083)"/><g transform="translate(815.754 720.797)"><path class="a" d="M2284.53,827.838a2.047,2.047,0,0,0-2.74.937l-2.651,5.475a2.048,2.048,0,1,0,3.677,1.8l2.651-5.475A2.048,2.048,0,0,0,2284.53,827.838Z" transform="translate(-2278.929 -819.354)"/><path class="a" d="M2377.75,735.692l-6.742-13.748a2.048,2.048,0,0,0-3.677,1.8l6.743,13.748a2.048,2.048,0,1,0,3.677-1.8Z" transform="translate(-2360.291 -720.797)"/></g><g transform="translate(692.923 720.797)"><path class="a" d="M698.524,827.838a2.047,2.047,0,0,0-2.74.937l-2.651,5.475a2.048,2.048,0,1,0,3.677,1.8l2.651-5.475A2.048,2.048,0,0,0,698.524,827.838Z" transform="translate(-692.923 -819.354)"/><path class="a" d="M785,721.944a2.048,2.048,0,1,0-3.677,1.8L788.07,737.5a2.048,2.048,0,0,0,3.677-1.8Z" transform="translate(-774.287 -720.797)"/><path class="a" d="M911.431,735.692l-6.743-13.748a2.048,2.048,0,1,0-3.677,1.8l6.743,13.748a2.048,2.048,0,0,0,3.677-1.8Z" transform="translate(-884.702 -720.797)"/></g><g transform="translate(781.435 720.797)"><path class="a" d="M2102.112,721.008a2.047,2.047,0,0,0-2.74.937l-2.651,5.475a2.048,2.048,0,0,0,3.677,1.8l2.651-5.475A2.048,2.048,0,0,0,2102.112,721.008Z" transform="translate(-2076.32 -720.798)"/><path class="a" d="M1959.375,721.944a2.048,2.048,0,1,0-3.677,1.8l6.743,13.748a2.048,2.048,0,1,0,3.677-1.8Z" transform="translate(-1946.219 -720.798)"/><path class="a" d="M1839.692,721.944a2.048,2.048,0,1,0-3.677,1.8l6.742,13.748a2.048,2.048,0,0,0,3.677-1.8Z" transform="translate(-1835.805 -720.798)"/></g><path class="a" d="M1143.708,720.8a8.922,8.922,0,1,0,8.922,8.922A8.932,8.932,0,0,0,1143.708,720.8Zm0,13.748a4.826,4.826,0,1,1,4.826-4.826A4.832,4.832,0,0,1,1143.708,734.552Z" transform="translate(-407.642 -0.006)"/></g></svg>