<svg xmlns="http://www.w3.org/2000/svg" width="57" height="57" viewBox="0 0 57 57"><defs><style>.a{fill:#fff;stroke:#c7c7c7;}.b,.d{fill:none;}.b{stroke:#a0a0a0;stroke-linecap:round;stroke-linejoin:round;stroke-miterlimit:10;stroke-width:1.2px;}.c{stroke:none;}</style></defs><g transform="translate(-320 -88)"><g transform="translate(290)"><g class="a" transform="translate(30 88)"><circle class="c" cx="28.5" cy="28.5" r="28.5"/><circle class="d" cx="28.5" cy="28.5" r="28"/></g></g><g transform="translate(332.299 98.77)"><path class="b" d="M26.845,21.618c-2.064-2.064-2.613-3.789-2.613-5.226V12.473c0-4.9-2.992-10.556-8.27-10.23a8.2,8.2,0,0,0-7.408,8.322v5.827c0,1.437-.549,3.162-2.613,5.226C4.608,22.951,4.634,24.283,4.752,26.9a1.306,1.306,0,0,0,1.293,1.254H26.714A1.3,1.3,0,0,0,28.007,26.9C28.151,24.283,28.177,22.951,26.845,21.618Z" transform="translate(0 0)"/><path class="b" d="M14.263,25.989h0a2.621,2.621,0,0,1-2.613-2.613V22.07h5.226v1.306A2.6,2.6,0,0,1,14.263,25.989Z" transform="translate(2.13 6.081)"/></g></g></svg>