<svg xmlns="http://www.w3.org/2000/svg" width="52.3" height="41.865" viewBox="0 0 52.3 41.865"><defs><style>.a{fill:#d72f5a;}.b{fill:#00ada8;}.c{fill:#fdc530;}.d{fill:#fc7e3f;}.e{fill:#e88733;}</style></defs><g transform="translate(0)"><path class="a" d="M665.822,577.311l5.706-8.585,7.23,8.585Z" transform="translate(-665.822 -568.05)"/><path class="b" d="M683.506,577.311h16.44l-8.261-8.261Z" transform="translate(-665.822 -568.05)"/><path class="a" d="M705.077,577.311l7.441-8.357,5.137,8.357Z" transform="translate(-665.822 -568.05)"/><path class="c" d="M673.446,568.051l7.563,9.428,9.049-9.428Z" transform="translate(-665.822 -568.05)"/><path class="d" d="M702.665,577.311l-9.145-9.26h17.149Z" transform="translate(-665.822 -568.05)"/><path class="c" d="M718.122,579.467l-25.065,30.312,10.561-30.312Z" transform="translate(-665.822 -568.05)"/><path class="b" d="M665.822,579.467H680.2l10.342,30.448Z" transform="translate(-665.822 -568.05)"/><path class="e" d="M682.312,579.467h19.067s-9.609,30.346-9.591,29.406S682.312,579.467,682.312,579.467Z" transform="translate(-665.822 -568.05)"/></g></svg>