<svg xmlns="http://www.w3.org/2000/svg" xmlns:xlink="http://www.w3.org/1999/xlink" width="25" height="25" viewBox="0 0 25 25"><defs><style>.a,.c{fill:#e88733;}.a{stroke:#707070;}.b{clip-path:url(#a);}</style><clipPath id="a"><rect class="a" width="25" height="25" transform="translate(204 525)"/></clipPath></defs><g class="b" transform="translate(-204 -525)"><path class="c" d="M26.042,3.125H5.208A2.09,2.09,0,0,0,3.125,5.208V26.042a2.09,2.09,0,0,0,2.083,2.083H15.625V17.708H13.542V15.625h2.083V13.542a5.209,5.209,0,0,1,5.208-5.208h2.083v2.083H20.833a3.125,3.125,0,0,0-3.125,3.125v2.083h5.208v2.083H17.708V28.125h8.333a2.09,2.09,0,0,0,2.083-2.083V5.208A2.09,2.09,0,0,0,26.042,3.125Z" transform="translate(200.875 521.875)"/></g></svg>