<svg xmlns="http://www.w3.org/2000/svg" xmlns:xlink="http://www.w3.org/1999/xlink" width="25" height="25" viewBox="0 0 25 25"><defs><style>.a,.c{fill:#e88733;}.a{stroke:#707070;}.b{clip-path:url(#a);}</style><clipPath id="a"><rect class="a" width="25" height="25" transform="translate(164 525)"/></clipPath></defs><g class="b" transform="translate(-164 -525)"><path class="c" d="M26.042,3.125H5.208A2.09,2.09,0,0,0,3.125,5.208V26.042a2.09,2.09,0,0,0,2.083,2.083H26.042a2.09,2.09,0,0,0,2.083-2.083V5.208A2.09,2.09,0,0,0,26.042,3.125ZM25,15.625a9.551,9.551,0,0,1-.061,1.042A9.372,9.372,0,1,1,22.254,9L20.782,10.47a7.3,7.3,0,1,0,2.052,6.2H15.625V14.583H25Z" transform="translate(160.875 521.875)"/></g></svg>