<svg xmlns="http://www.w3.org/2000/svg" xmlns:xlink="http://www.w3.org/1999/xlink" width="23" height="23" viewBox="0 0 23 23"><defs><style>.a{fill:#fff;}.a,.c{stroke:#707070;}.b{clip-path:url(#a);}.c{fill:none;stroke-linecap:round;stroke-linejoin:round;stroke-miterlimit:10;stroke-width:1.25px;}</style><clipPath id="a"><rect class="a" width="23" height="23" transform="translate(13.5 23)"/></clipPath></defs><g class="b" transform="translate(-13.5 -23)"><g transform="translate(14.578 24.298)"><path class="c" d="M12.988,5.745a5.793,5.793,0,0,1,5.366-2.409,5.639,5.639,0,0,1,4.938,4.429c1.045,5.063-4.767,9.6-9.535,15.253a1.069,1.069,0,0,1-1.624,0C7.395,17.384,1.639,12.855,2.637,7.81A5.654,5.654,0,0,1,7.556,3.336a5.8,5.8,0,0,1,5.394,2.4" transform="translate(-2.523 -3.302)"/></g></g></svg>