<svg xmlns="http://www.w3.org/2000/svg" width="57" height="57" viewBox="0 0 57 57"><defs><style>.a{fill:#fff;stroke:#c7c7c7;}.b,.d{fill:none;}.b{stroke:#a0a0a0;stroke-linecap:round;stroke-linejoin:round;stroke-miterlimit:10;stroke-width:1.2px;}.c{stroke:none;}</style></defs><g transform="translate(-130 -88)"><g transform="translate(100)"><g class="a" transform="translate(30 88)"><circle class="c" cx="28.5" cy="28.5" r="28.5"/><circle class="d" cx="28.5" cy="28.5" r="28"/></g></g><g transform="translate(142.55 97.76)"><circle class="b" cx="10" cy="10" r="10" transform="translate(6.45 13.962)"/><path class="b" d="M11.44,11.376V8.89h6v2.486" transform="translate(1.941 2.586)"/><path class="b" d="M18.809,11.472,23.7,6.583,21.253,2.25H10.364L7.92,6.583l4.889,4.889" transform="translate(0.572 0.004)"/><line class="b" x2="15.583" transform="translate(8.492 6.587)"/><path class="b" d="M9.99,2.629,12.573,6.24,15,2.24l2.389,4,2.778-3.611" transform="translate(1.377)"/><line class="b" x2="1.208" y2="4.889" transform="translate(14.033 6.587)"/><line class="b" x1="1.222" y2="4.889" transform="translate(17.547 6.421)"/></g></g></svg>