<svg xmlns="http://www.w3.org/2000/svg" xmlns:xlink="http://www.w3.org/1999/xlink" width="81" height="81" viewBox="0 0 81 81"><defs><style>.a{fill:#fff;}.b{fill:#ddd;}.c{filter:url(#a);}</style><filter id="a" x="0" y="0" width="81" height="81" filterUnits="userSpaceOnUse"><feOffset dy="3" input="SourceAlpha"/><feGaussianBlur stdDeviation="3" result="b"/><feFlood flood-opacity="0.161"/><feComposite operator="in" in2="b"/><feComposite in="SourceGraphic"/></filter></defs><g transform="translate(9.226 6)"><g class="c" transform="matrix(1, 0, 0, 1, -9.23, -6)"><circle class="a" cx="31.5" cy="31.5" r="31.5" transform="translate(9 6)"/></g><g transform="translate(8.662 11)"><rect class="b" width="26.2" height="7" transform="translate(9.596 25)"/><path class="b" d="M13.1,0A13.1,13.1,0,0,1,26.2,13.1V23H0V13.1A13.1,13.1,0,0,1,13.1,0Z" transform="translate(9.596)"/><path class="b" d="M-95.571,625H-103v16.592h4.458Z" transform="translate(141 -609.521)"/><path class="b" d="M-103,625h7.429v16.592h-4.458Z" transform="translate(103 -609.521)"/><rect class="b" width="3" height="4" transform="translate(38.112 34)"/><rect class="b" width="3" height="4" transform="translate(3.112 34)"/></g></g></svg>