<svg xmlns="http://www.w3.org/2000/svg" width="62.6" height="10.6" viewBox="0 0 62.6 10.6"><defs><style>.a{fill:#fff;}.a,.b{stroke:#c7c7c7;}.a,.b,.c{stroke-linecap:round;stroke-linejoin:round;stroke-width:0.6px;}.b{fill:none;}.c{fill:#24d6e6;stroke:#24d6e6;}</style></defs><g transform="translate(-115.7 -460.7)"><g transform="translate(168 461)"><path class="a" d="M7.362,1.658,8.726,5.571h3.636L9.635,7.745,11,11.658,7.362,9.05,3.726,11.658,5.09,7.745,2.362,5.571H6Z" transform="translate(-2.362 -1.658)"/></g><g transform="translate(155 461)"><path class="b" d="M7.362,1.658,8.726,5.571h3.636L9.635,7.745,11,11.658,7.362,9.05,3.726,11.658,5.09,7.745,2.362,5.571H6Z" transform="translate(-2.362 -1.658)"/></g><g transform="translate(129 461)"><path class="c" d="M7.362,1.658,8.726,5.571h3.636L9.635,7.745,11,11.658,7.362,9.05,3.726,11.658,5.09,7.745,2.362,5.571H6Z" transform="translate(-2.362 -1.658)"/></g><g transform="translate(116 461)"><path class="c" d="M7.362,1.658,8.726,5.571h3.636L9.635,7.745,11,11.658,7.362,9.05,3.726,11.658,5.09,7.745,2.362,5.571H6Z" transform="translate(-2.362 -1.658)"/></g><g transform="translate(142 461)"><path class="c" d="M7.362,1.658,8.726,5.571h3.636L9.635,7.745,11,11.658,7.362,9.05,3.726,11.658,5.09,7.745,2.362,5.571H6Z" transform="translate(-2.362 -1.658)"/></g></g></svg>