<svg xmlns="http://www.w3.org/2000/svg" width="57" height="57" viewBox="0 0 57 57"><defs><style>.a{fill:#fff;stroke:#c7c7c7;}.b,.d{fill:none;}.b{stroke:#a0a0a0;stroke-linecap:round;stroke-linejoin:round;stroke-miterlimit:10;stroke-width:1.2px;}.c{stroke:none;}</style></defs><g transform="translate(-225 -88)"><g transform="translate(195)"><g class="a" transform="translate(30 88)"><circle class="c" cx="28.5" cy="28.5" r="28.5"/><circle class="d" cx="28.5" cy="28.5" r="28"/></g></g><g transform="translate(235.393 97.5)"><path class="b" d="M13.9,32.694,4.016,22.809a1.392,1.392,0,0,1,0-1.971L19.844,5.01l9.717.881a1.4,1.4,0,0,1,1.272,1.272l.881,9.717L15.887,32.694A1.409,1.409,0,0,1,13.9,32.694Z" transform="translate(0 0.999)"/><line class="b" x1="8.906" y2="8.892" transform="translate(10.937 13.923)"/><line class="b" x1="8.892" y2="8.892" transform="translate(14.894 17.88)"/><path class="b" d="M21.366,10.889c-1.734,0-3.146-1.874-3.146-4.195S19.632,2.5,21.366,2.5s3.146,1.874,3.146,4.195" transform="translate(5.818 0)"/></g></g></svg>